<svg xmlns="http://www.w3.org/2000/svg" id="mountain4" viewBox="0 0 481.09 408.14"><defs><style>.cls-1,.cls-2,.cls-3{fill:#fff}.cls-1{opacity:.5}.cls-3{stroke:#fff;stroke-miterlimit:10;stroke-width:9.1px}</style></defs><title>Test3bColumn1</title><polygon points="307.28 165.59 268.6 57.23 215.31 79.9 176.55 172.77 158.31 123.9 106.31 148.9 0 305.38 481.09 305.38 381.31 103.9 337.31 122.9 307.28 165.59" class="cls-1"/><polygon points="214.27 82.4 269.28 59.9 248.31 3.23 214.27 82.4" class="cls-2"/><polygon points="334.47 126.81 382.25 105.81 368.64 78.15 334.47 126.81" class="cls-2"/><polygon points="105.64 150.23 159.31 126.9 145.31 89.23 105.64 150.23" class="cls-2"/><path d="M187.73,144c-2.13-2-4.92-4.14-6.58-5.4,0-.56,0-1.1,0-1.63,0.41-1,.4-3.31.22-5.82,0.17-.46.34-0.92,0.49-1.37,0.42,0.22.86,0.42,1.31,0.63,1.65,1.9,3.29,3.56,4.28,4l1.14,1.17C188.28,137.57,187.84,141.09,187.73,144Zm-17.58,0c-0.12-2.89-.55-6.41-0.83-8.47l1.14-1.17c1-.41,2.62-2.06,4.27-4,0.45-.2.89-0.41,1.31-0.63,0.15,0.45.31,0.91,0.48,1.37-0.18,2.51-.19,4.84.22,5.83,0,0.53,0,1.08,0,1.63C175.07,139.84,172.27,142,170.15,144Zm0-42.44c2.13,2,4.92,4.14,6.58,5.4,0,0.56,0,1.1,0,1.63-0.41,1-.4,3.31-0.22,5.83-0.17.46-.34,0.92-0.48,1.37-0.42-.22-0.86-0.42-1.31-0.63-1.65-1.9-3.29-3.55-4.27-4L169.31,110C169.6,107.94,170,104.42,170.15,101.53Zm17.58,0c0.12,2.89.55,6.41,0.83,8.47l-1.14,1.17c-1,.41-2.62,2.06-4.27,4-0.45.2-.89,0.41-1.31,0.63-0.15-.45-0.31-0.91-0.48-1.37,0.18-2.51.19-4.84-.22-5.83,0-.53,0-1.08,0-1.63C182.81,105.67,185.6,103.5,187.73,101.53Zm5.4,19c-1-.41-3.31-0.4-5.82-0.22-0.46-.17-0.92-0.34-1.37-0.48,0.22-.42.43-0.86,0.63-1.31,1.9-1.65,3.56-3.29,4-4.28l1.17-1.14c2.06,0.28,5.58.72,8.47,0.83-2,2.13-4.14,4.92-5.4,6.58Zm-25.78-6.29c0.41,1,2.06,2.62,4,4.27,0.2,0.45.41,0.89,0.63,1.31-0.45.15-.91,0.31-1.37,0.48-2.51-.18-4.84-0.19-5.83.22l-1.63,0c-1.26-1.66-3.44-4.45-5.4-6.58,2.89-.12,6.4-0.55,8.47-0.83ZM164.75,125c1,0.41,3.31.39,5.82,0.22,0.46,0.17.92,0.34,1.37,0.48-0.22.42-.42,0.86-0.63,1.31-1.9,1.65-3.56,3.29-4,4.27l-1.17,1.14c-2.06-.28-5.58-0.72-8.47-0.83,2-2.13,4.14-4.92,5.4-6.58Zm25.77,6.29c-0.41-1-2.06-2.62-4-4.27-0.2-.45-0.41-0.89-0.63-1.31,0.45-.15.91-0.31,1.37-0.48,2.51,0.18,4.84.19,5.82-.22l1.63,0c1.26,1.66,3.44,4.45,5.4,6.58-2.89.12-6.4,0.55-8.47,0.83Z" class="cls-2" transform="translate(-10.12 -77.1)"/><polygon points="155.54 58.97 152.95 67.64 146.86 67.64 146.86 61.55 155.54 58.97" class="cls-2"/><polygon points="182.1 32.4 184.69 23.72 190.78 23.72 190.78 29.82 182.1 32.4" class="cls-2"/><polygon points="182.1 58.97 190.78 61.55 190.78 67.64 184.69 67.64 182.1 58.97" class="cls-2"/><polygon points="155.54 32.4 146.86 29.82 146.86 23.72 152.95 23.72 155.54 32.4" class="cls-2"/><polygon points="150.03 45.68 142.07 49.99 137.76 45.68 142.07 41.38 150.03 45.68" class="cls-2"/><polygon points="187.6 45.68 195.57 41.38 199.88 45.68 195.57 49.99 187.6 45.68" class="cls-2"/><polygon points="144.13 35.45 136.92 36.2 135.06 31.7 139.56 29.83 144.13 35.45" class="cls-2"/><polygon points="193.51 55.91 200.72 55.16 202.59 59.67 198.08 61.53 193.51 55.91" class="cls-2"/><polygon points="158.59 70.38 159.34 77.58 154.83 79.45 152.97 74.94 158.59 70.38" class="cls-2"/><polygon points="179.05 20.99 178.3 13.78 182.81 11.92 184.67 16.42 179.05 20.99" class="cls-2"/><polygon points="144.13 55.91 139.56 61.53 135.06 59.67 136.92 55.17 144.13 55.91" class="cls-2"/><polygon points="193.51 35.45 198.08 29.83 202.59 31.7 200.72 36.2 193.51 35.45" class="cls-2"/><polygon points="179.05 70.38 184.67 74.94 182.81 79.45 178.3 77.58 179.05 70.38" class="cls-2"/><polygon points="158.59 20.99 152.97 16.42 154.83 11.92 159.34 13.78 158.59 20.99" class="cls-2"/><polygon points="145.19 22.06 136.52 19.47 136.52 13.38 142.61 13.38 145.19 22.06" class="cls-2"/><polygon points="192.44 69.31 201.12 71.89 201.12 77.99 195.03 77.99 192.44 69.31" class="cls-2"/><polygon points="145.2 69.31 142.61 77.99 136.52 77.99 136.52 71.89 145.2 69.31" class="cls-2"/><polygon points="192.44 22.06 195.03 13.38 201.12 13.38 201.12 19.47 192.44 22.06" class="cls-2"/><polygon points="135.41 45.68 127.44 49.99 123.14 45.68 127.44 41.38 135.41 45.68" class="cls-2"/><polygon points="202.23 45.68 210.19 41.38 214.5 45.68 210.19 49.99 202.23 45.68" class="cls-2"/><polygon points="168.82 79.09 173.13 87.06 168.82 91.37 164.51 87.06 168.82 79.09" class="cls-2"/><polygon points="168.82 64.47 173.13 72.43 168.82 76.74 164.51 72.43 168.82 64.47" class="cls-2"/><polygon points="168.82 12.27 164.51 4.31 168.82 0 173.13 4.31 168.82 12.27" class="cls-2"/><polygon points="168.82 26.9 164.51 18.93 168.82 14.62 173.13 18.93 168.82 26.9" class="cls-2"/><path d="M112.5,372.7a45,45,0,1,0,55.17-31.85A45,45,0,0,0,112.5,372.7Zm109.12-59.56c0.64-4.65,24.22-85.69,34-117.65l56-20.56L249,409.29a96.25,96.25,0,1,1-28.13-96.11Z" class="cls-3" transform="translate(-10.12 -77.1)"/><path d="M406.7,343.44A43.58,43.58,0,0,0,388,339.33a45,45,0,1,0,36,72.12l0.64-.69,40.6,31.12-0.29.38A96,96,0,0,1,388,480.68c-52.83,0-96.31-43.47-96.31-96.31s43.47-96.31,96.31-96.31a96.31,96.31,0,0,1,40.7,9l0.73,0.35Z" class="cls-3" transform="translate(-10.12 -77.1)"/></svg>