<svg xmlns="http://www.w3.org/2000/svg" id="dcNoFill" viewBox="0 0 480.22 497.73"><defs><style>.cls-1{fill:none;stroke:#fff;stroke-miterlimit:10;stroke-width:11px}.cls-2{opacity:.6}.cls-3{fill:#fff}</style></defs><title>Flake1nf</title><path d="M92.3,393a54.48,54.48,0,1,0,54.48-54.48A54.48,54.48,0,0,0,92.3,393ZM201.16,289.82L201.34,167l61.74-42.28L263.25,393a116.41,116.41,0,1,1-62.94-103.47Z" class="cls-1" transform="translate(-24.8 -17.23)"/><path d="M426.53,343.48a52.71,52.71,0,0,0-22.65-5,54.48,54.48,0,1,0,43.54,87.22l0.77-.84,49.1,37.64-0.35.46a116.15,116.15,0,0,1-93.06,46.48C340,509.46,287.4,456.88,287.4,393S340,276.51,403.88,276.51a116.48,116.48,0,0,1,49.23,10.91l0.88,0.42Z" class="cls-1" transform="translate(-24.8 -17.23)"/><g class="cls-2"><path d="M285.28,158.81c-4.5-4.15-10.42-8.76-13.93-11.43,0-1.18,0-2.33,0-3.46,0.87-2.09.84-7,.46-12.33,0.37-1,.72-1.94,1-2.9,0.89,0.46,1.82.9,2.77,1.32,3.5,4,7,7.53,9.05,8.4l2.41,2.47C286.44,145.25,285.52,152.69,285.28,158.81Zm-37.22,0c-0.25-6.12-1.17-13.56-1.77-17.93l2.42-2.47c2.09-.87,5.55-4.37,9-8.39,0.95-.43,1.88-0.87,2.77-1.33,0.31,1,.66,1.93,1,2.9-0.37,5.32-.4,10.24.46,12.33,0,1.13,0,2.28,0,3.46C258.47,150.05,252.55,154.66,248.05,158.81Zm0-89.86c4.5,4.15,10.42,8.76,13.93,11.43,0,1.18,0,2.33,0,3.46-0.87,2.09-.84,7-0.46,12.33-0.37,1-.72,1.94-1,2.9-0.89-.46-1.83-0.9-2.78-1.33-3.49-4-7-7.53-9-8.39l-2.42-2.47C246.89,82.52,247.8,75.07,248.05,69Zm37.22,0c0.25,6.12,1.17,13.56,1.76,17.93l-2.42,2.48c-2.09.87-5.55,4.37-9,8.39-0.95.43-1.88,0.87-2.78,1.33-0.31-1-.66-1.93-1-2.9,0.37-5.32.4-10.25-.46-12.34,0-1.13,0-2.28,0-3.45C274.86,77.72,280.77,73.11,285.28,69Zm11.43,40.28c-2.09-.87-7-0.84-12.33-0.46-1-.37-1.94-0.72-2.9-1,0.46-.89.9-1.83,1.33-2.77,4-3.5,7.53-7,8.39-9.05l2.47-2.41c4.37,0.6,11.81,1.52,17.93,1.77-4.15,4.5-8.76,10.42-11.43,13.93ZM242.13,95.93c0.87,2.09,4.37,5.55,8.39,9,0.43,0.95.87,1.88,1.32,2.77-1,.31-1.93.66-2.9,1-5.32-.37-10.25-0.4-12.34.46l-3.45,0c-2.66-3.51-7.28-9.42-11.43-13.93,6.12-.25,13.56-1.17,17.92-1.77Zm-5.51,22.61c2.09,0.86,7,.83,12.33.46,1,0.37,1.94.72,2.9,1-0.46.89-.9,1.83-1.32,2.77-4,3.5-7.53,7-8.39,9l-2.47,2.42c-4.37-.6-11.81-1.52-17.93-1.76,4.15-4.5,8.76-10.41,11.43-13.93Zm54.57,13.31c-0.87-2.09-4.37-5.55-8.39-9-0.43-.95-0.87-1.88-1.33-2.77,1-.31,1.93-0.66,2.9-1,5.32,0.37,10.24.4,12.33-.46l3.46,0c2.66,3.51,7.27,9.42,11.43,13.93-6.12.25-13.56,1.16-17.93,1.76Z" class="cls-3" transform="translate(-24.8 -17.23)"/><polygon points="213.74 124.84 208.27 143.22 195.37 143.22 195.37 130.32 213.74 124.84" class="cls-3"/><polygon points="269.99 68.6 275.46 50.22 288.36 50.22 288.36 63.12 269.99 68.6" class="cls-3"/><polygon points="269.99 124.84 288.36 130.32 288.36 143.22 275.46 143.22 269.99 124.84" class="cls-3"/><polygon points="213.74 68.6 195.37 63.12 195.37 50.22 208.27 50.22 213.74 68.6" class="cls-3"/><polygon points="202.09 96.72 185.23 105.84 176.11 96.72 185.23 87.6 202.09 96.72" class="cls-3"/><polygon points="281.64 96.72 298.5 87.6 307.62 96.72 298.5 105.84 281.64 96.72" class="cls-3"/><polygon points="189.58 75.06 174.33 76.64 170.38 67.11 179.91 63.16 189.58 75.06" class="cls-3"/><polygon points="294.14 118.38 309.4 116.8 313.35 126.33 303.82 130.28 294.14 118.38" class="cls-3"/><polygon points="220.21 149 221.79 164.26 212.25 168.21 208.3 158.67 220.21 149" class="cls-3"/><polygon points="263.52 44.44 261.94 29.18 271.48 25.23 275.43 34.77 263.52 44.44" class="cls-3"/><polygon points="189.58 118.38 179.91 130.28 170.38 126.33 174.33 116.8 189.58 118.38" class="cls-3"/><polygon points="294.14 75.06 303.82 63.16 313.35 67.11 309.4 76.64 294.14 75.06" class="cls-3"/><polygon points="263.52 149 275.43 158.67 271.48 168.21 261.94 164.26 263.52 149" class="cls-3"/><polygon points="220.21 44.44 208.3 34.77 212.25 25.23 221.79 29.18 220.21 44.44" class="cls-3"/><polygon points="191.85 46.7 173.47 41.23 173.47 28.33 186.37 28.33 191.85 46.7" class="cls-3"/><polygon points="291.88 146.74 310.26 152.21 310.26 165.11 297.36 165.11 291.88 146.74" class="cls-3"/><polygon points="191.85 146.74 186.37 165.11 173.47 165.11 173.47 152.21 191.85 146.74" class="cls-3"/><polygon points="291.88 46.7 297.36 28.33 310.26 28.33 310.26 41.23 291.88 46.7" class="cls-3"/><polygon points="171.13 96.72 154.27 105.84 145.14 96.72 154.27 87.6 171.13 96.72" class="cls-3"/><polygon points="312.6 96.72 329.46 87.6 338.58 96.72 329.46 105.84 312.6 96.72" class="cls-3"/><polygon points="241.86 167.46 250.99 184.32 241.86 193.44 232.74 184.32 241.86 167.46" class="cls-3"/><polygon points="241.86 136.49 250.99 153.36 241.86 162.48 232.74 153.36 241.86 136.49" class="cls-3"/><polygon points="241.86 25.98 232.74 9.12 241.86 0 250.99 9.12 241.86 25.98" class="cls-3"/><polygon points="241.86 56.95 232.74 40.09 241.86 30.96 250.99 40.08 241.86 56.95" class="cls-3"/></g></svg>