<svg xmlns="http://www.w3.org/2000/svg" id="WhiteFill" viewBox="0 0 480.22 504.71"><defs><style>.cls-1,.cls-3{fill:#fff}.cls-1{stroke:#fff;stroke-miterlimit:10;stroke-width:11px}.cls-2{opacity:.6}.cls-3{fill-rule:evenodd}</style></defs><title>FlakeeWhiteFill03</title><path d="M92.3,393a54.48,54.48,0,1,0,54.48-54.48A54.48,54.48,0,0,0,92.3,393ZM201.16,289.82L201.34,167l61.74-42.28L263.25,393a116.41,116.41,0,1,1-62.94-103.47Z" class="cls-1" transform="translate(-24.8 -10.25)"/><path d="M426.53,343.48a52.71,52.71,0,0,0-22.65-5,54.48,54.48,0,1,0,43.54,87.22l0.77-.84,49.1,37.64-0.35.46a116.15,116.15,0,0,1-93.06,46.48C340,509.46,287.4,456.88,287.4,393S340,276.51,403.88,276.51a116.48,116.48,0,0,1,49.23,10.91l0.88,0.42Z" class="cls-1" transform="translate(-24.8 -10.25)"/><g class="cls-2"><polygon points="245.03 25.47 245.03 34.86 266.61 22.07 245.03 47.74 245.03 63.77 271.88 34.83 245.03 76.83 245.03 86.43 255.69 75.59 245.03 96.8 245.03 103.45 249.73 98.75 257.18 76.21 257.05 91.42 263.85 84.62 274.55 35.94 273.08 75.39 284.42 64.05 287.3 30.64 293.51 54.95 300.16 48.31 302.44 21.92 306.91 39.4 309.03 36.46 311.9 32.49 315.46 31.82 319.02 31.14 318.34 34.7 317.66 38.26 313.69 41.13 311 43.08 327.9 47.4 301.51 49.67 294.87 56.31 319.19 62.54 285.76 65.42 274.44 76.75 313.9 75.28 265.2 85.98 258.4 92.79 273.63 92.66 251.05 100.13 246.38 104.81 253.04 104.81 274.24 94.15 263.4 104.81 273.01 104.81 315 77.95 286.06 104.81 302.09 104.81 327.76 83.22 314.97 104.81 324.36 104.81 344.63 87.76 335.43 103.28 339.01 102.71 343.85 101.93 346.84 103.97 349.83 106 346.84 108.04 343.85 110.08 339.01 109.3 335.73 108.77 344.63 123.78 324.36 106.73 314.96 106.73 327.76 128.33 302.08 106.73 286.06 106.73 315 133.6 273 106.73 263.38 106.73 274.24 117.41 252.99 106.73 246.38 106.73 251.09 111.43 273.63 118.89 258.42 118.77 265.21 125.56 313.89 136.26 274.44 134.79 285.78 146.12 319.19 149.01 294.88 155.23 301.52 161.87 327.9 164.15 310.43 168.62 313.36 170.74 317.34 173.62 318.01 177.17 318.68 180.73 315.13 180.06 311.57 179.38 308.7 175.4 306.76 172.72 302.44 189.62 300.16 163.23 293.51 156.58 287.29 180.91 284.41 147.47 273.08 136.15 274.55 175.61 263.85 126.91 257.04 120.11 257.17 135.34 249.7 112.76 245.03 108.09 245.03 114.74 255.69 135.95 245.03 125.11 245.03 134.72 271.88 176.71 245.03 147.78 245.03 163.8 266.61 189.47 245.03 176.68 245.03 186.07 262.07 206.33 246.55 197.14 247.12 200.73 247.91 205.56 245.87 208.55 243.82 211.54 241.79 208.55 239.75 205.56 240.53 200.73 241.06 197.44 226.05 206.33 243.1 186.07 243.1 176.67 221.5 189.47 243.1 163.8 243.1 147.77 216.23 176.71 243.1 134.71 243.1 125.09 232.42 135.95 243.1 114.7 243.1 108.08 238.42 112.77 230.95 135.34 231.07 120.11 224.27 126.91 213.57 175.61 215.04 136.15 203.71 147.47 200.82 180.91 194.6 156.58 187.96 163.23 185.68 189.62 181.36 172.72 179.41 175.4 176.54 179.38 172.99 180.06 169.44 180.73 170.11 177.17 170.78 173.62 174.76 170.74 177.69 168.62 160.22 164.15 186.6 161.87 193.24 155.23 168.93 149.01 202.34 146.12 213.68 134.79 174.22 136.26 222.91 125.56 229.7 118.77 214.49 118.89 237.03 111.43 241.74 106.73 235.13 106.73 213.88 117.41 224.74 106.73 215.12 106.73 173.12 133.6 202.06 106.73 186.04 106.73 160.36 128.33 173.16 106.73 163.76 106.73 143.49 123.78 152.38 108.77 149.11 109.3 144.28 110.08 141.28 108.04 138.29 106 141.28 103.97 144.28 101.93 149.11 102.71 152.69 103.28 143.49 87.76 163.76 104.81 173.15 104.81 160.36 83.22 186.03 104.81 202.06 104.81 173.12 77.95 215.11 104.81 224.72 104.81 213.88 94.15 235.09 104.81 241.74 104.81 237.07 100.13 214.48 92.66 229.72 92.79 222.92 85.98 174.22 75.28 213.68 76.75 202.35 65.42 168.93 62.54 193.25 56.31 186.6 49.67 160.22 47.4 177.12 43.08 174.43 41.13 170.45 38.26 169.78 34.7 169.11 31.14 172.66 31.82 176.22 32.49 179.09 36.46 181.21 39.4 185.68 21.92 187.96 48.31 194.6 54.95 200.82 30.64 203.7 64.05 215.04 75.39 213.57 35.94 224.27 84.62 231.07 91.42 230.94 76.21 238.4 98.75 243.1 103.45 243.1 96.84 232.42 75.59 243.1 86.45 243.1 76.83 216.23 34.83 243.1 63.77 243.1 47.75 221.5 22.07 243.1 34.87 243.1 25.48 226.05 5.21 241.06 14.09 240.53 10.82 239.75 5.99 241.79 2.99 243.82 0 245.87 2.99 247.91 5.99 247.12 10.82 246.55 14.4 262.07 5.21 245.03 25.47 245.03 25.47" class="cls-3"/></g></svg>