<svg id="dcNoFill" xmlns="http://www.w3.org/2000/svg" viewBox="0 0 489.82 489.5"><defs><style>.cls-1{fill:none;stroke-width:11px;}.cls-1,.cls-3{stroke:#fff;}.cls-1,.cls-3,.cls-5{stroke-miterlimit:10;}.cls-2{opacity:0.35;}.cls-3,.cls-5,.cls-6{fill:#fff;}.cls-3{stroke-width:6px;}.cls-4{opacity:0.6;}.cls-5{stroke:#000;stroke-width:1.1px;}</style></defs><title>Flake2SLNTfill35%</title><path class="cls-1" d="M94.08,369.56A54.48,54.48,0,1,0,160.81,331,54.48,54.48,0,0,0,94.08,369.56Zm131.85-71.47c10.66-39.54,27.8-103.31,38.46-142.85L335,130.37,259.22,413.8a116.41,116.41,0,1,1-34-116.24Z" transform="translate(-24.7 -19.15)"/><path class="cls-1" d="M436,337.17a52.71,52.71,0,0,0-22.65-5,54.48,54.48,0,1,0,43.54,87.22l0.77-.84,49.1,37.64-0.35.46a116.15,116.15,0,0,1-93.06,46.48c-63.9,0-116.48-52.58-116.48-116.48S349.48,270.2,413.38,270.2a116.48,116.48,0,0,1,49.23,10.91l0.88,0.42Z" transform="translate(-24.7 -19.15)"/><g class="cls-2"><path class="cls-3" d="M94.08,369.56A54.48,54.48,0,1,0,160.81,331,54.48,54.48,0,0,0,94.08,369.56Zm131.85-71.47c10.66-39.54,27.8-103.31,38.46-142.85L335,130.37,259.22,413.8a116.41,116.41,0,1,1-34-116.24Z" transform="translate(-24.7 -19.15)"/><path class="cls-3" d="M436,337.17a52.71,52.71,0,0,0-22.65-5,54.48,54.48,0,1,0,43.54,87.22l0.77-.84,49.1,37.64-0.35.46a116.15,116.15,0,0,1-93.06,46.48c-63.9,0-116.48-52.58-116.48-116.48S349.48,270.2,413.38,270.2a116.48,116.48,0,0,1,49.23,10.91l0.88,0.42Z" transform="translate(-24.7 -19.15)"/></g><g class="cls-4"><circle class="cls-5" cx="331.23" cy="129.9"/><path class="cls-6" d="M340.69,225.54l10.08-13.94,0.49-.66-8.68-14.06,0.33-14.73,8.65,7.17,2.57,10.54,13.37,2.08-2.94-12-0.2-.8-11.3-1.75L343,179l0.36-15.3,8.51,4.65,5.39,9.95,14.05,0.54-6.21-11.44-0.33-.61-11.45-.44-9.9-5.43,0.42-18.21,12.1,6.42h0l0.19,0.09h0l0.58,0.26h0a4.15,4.15,0,0,0,1.11.32h0.1l0.36-.23h0l0-.12,0.06-.57c0.05-.45.12-1.09,0.2-1.84h0c0.14-1.5.33-3.47,0.5-5.42h0c0.23-2.56.45-5.1,0.56-6.55h0l0.1-1.22,15.59,9.39-0.4,10.94-6.19,9.27,6.07,12.68L382,165.31l0.39-.59-5-10.53,0.35-9.53,13.26,8,0.43,13.5-4.87,9-0.4.71,8.5,10.52,6.3-11.58L393.89,166l-0.37-11.81L406.58,162,413,176.22l18.48-.61L424.39,160l-0.34-.75-16.52.54-12.63-7.6,10.53-3.94,10.44,3,8.42-10.57-11.88-3.42-0.8-.22-7.13,9-12.26,4.58-13.11-7.9,8.26-5.08,11.33,0.24,7.43-11.94-13-.27-0.7,0-6.05,9.72-9.63,5.93-15.61-9.41,11.49-7.26a0.13,0.13,0,0,1,.07,0h0l0,0h0l0.17-.12h0l0.47-.36h0a4.53,4.53,0,0,0,.89-0.89h0l0.07-.21,0-.21,0,0-0.08-.06-0.46-.34c-0.32-.26-0.84-0.62-1.45-1.05h0c-1.22-.87-2.84-2-4.48-3.13h0c-2.12-1.5-4.25-3-5.47-3.79h0l-1-.69,15.87-8.88,9.32,5.77,5,10,14,1-5.82-11.63-0.32-.63-11.63-.84-8.1-5,13.52-7.55,11.93,6.31,5.34,8.67,0.44,0.7,13.36-2.15-6.94-11.23-11.13,1.79-10.45-5.53L409,86.9l15.5,1.43L433.15,72,416,70.39l-0.81-.08-7.72,14.62-12.87,7.19,1.8-11.1,7.77-7.58-5-12.55-8.85,8.63-0.58.56L394,80.73l-2.1,12.92-13.37,7.47-0.31-9.69L384,81.71l-6.66-12.37-6.7,11.16-0.36.59,5.44,10.09,0.36,11.29-15.91,8.9L359.6,97.72s0,0,0,0h0s0-.09,0-0.14h0c0-.12,0-0.28-0.05-0.47h0a8.05,8.05,0,0,0-.21-1.11h0a0.94,0.94,0,0,0-.26-0.49h0l-0.22-.05h0l-0.1,0-0.51.23-1.66.74h0l-4.94,2.33h0l-6,2.87h0l-1.09.52L344.66,84l9.63-5.22,11.13,0.61,7.83-11.67-13-.71-0.7,0-6.5,9.69-8.39,4.54,0.14-15.48,11.41-7.23,10.18-.35,0.81,0L372,45.42l-13.18.45-4,10.56-10,6.33L345,47.5l8.94-12.74L344,19.15l-9.87,14.06-0.47.68,8.85,13.95-0.13,14.73-8.74-7.06L330.93,45l-13.39-1.88,3.12,12,0.2,0.79,11.33,1.6,10.18,8.22L342.23,81l-8.58-4.53-5.54-9.87L314,66.29l6.37,11.34,0.34,0.61,11.45,0.27,10,5.3L342,102l-1.09-.58c-2.72-1.44-9.7-5.12-12.28-6.2h0a5,5,0,0,0-.86-0.31h0l-0.17.05,0,0.08,0,0.12-0.06.59c-0.06.45-.12,1.1-0.18,1.87h0c-0.14,1.54-.31,3.54-0.47,5.55h0c-0.22,2.64-.41,5.25-0.54,6.73h0l-0.1,1.19L310.53,102l0.24-11,6-9.35L310.57,69,303.51,80l-0.38.59L308.31,91l-0.21,9.53-13.38-7.8L294.1,79.26l4.75-9,0.38-.73-8.64-10.39-6.14,11.66,7.2,8.67,0.54,11.81L279,83.58l-6.64-14.07-18.47.87,7.33,15.55,0.35,0.74,16.5-.78,12.74,7.43L280.38,97.4,269.9,94.56l-8.28,10.69,11.95,3.25,0.78,0.21,7-9,12.19-4.76,13.24,7.71-8.19,5.2-11.32-.08-7.26,12,13,0.09h0.69l5.92-9.81,9.55-6.06,15.74,9.18-1,.67c-2.51,1.58-8.73,5.55-10.83,7.21h0a3.73,3.73,0,0,0-.7.64h0l0,0.13,0,0.07L313,122v0.08l0,0.07-0.09.33c0.31,0.26.73,0.58,1.22,1h0c1.15,0.87,2.72,2,4.3,3.1h0c2,1.43,4.07,2.84,5.26,3.67h0l1,0.7-16,8.64-9.23-5.93-4.84-10-14-1.2,5.65,11.71,0.3,0.63,11.62,1,8,5.13-13.63,7.37-11.85-6.48L275.56,133l-0.41-.71-13.38,2,6.77,11.33,11.16-1.64,10.36,5.69-13.42,7.25-15.46-1.66-8.88,16.23,17.1,1.83,0.82,0.09,7.91-14.49,13-7-1.95,11-7.89,7.47L286.09,183l9-8.5,0.6-.57-4.1-10.7,2.28-12.88,13.48-7.28,0.17,9.7-6,9.63L308,174.88l6.86-11.06,0.37-.6L310,153.07l-0.2-11.3,16-8.67,0.42,13.6a0.06,0.06,0,0,1,0,0h0v0h0v0.16h0c0,0.12,0,.29,0,0.47h0a7.2,7.2,0,0,0,.2,1.12h0a0.81,0.81,0,0,0,.26.49h0l0.21,0.06h0.11l0.1,0,0.49-.19,0.95-.48,0.1-.08,12.69-5.77L341,160.72l-9.69,5.07L320.14,165l-8,11.56,13,0.9,0.7,0,6.65-9.6,8.43-4.41L340.54,179,329,186.07l-10.18.2H318l-4.91,12.6,13.18-.27,4.11-10.51,10.06-6.18-0.34,15.26L331,209.78h0l9.68,15.76h0ZM328.18,131.7l13.6-7.34-0.37,15.37L332.12,144l-3.52,1.55-0.43-13.85h0Zm15.59,8,0.49-15.29,13.17,7.93-1.29,14-10.79-5.74-1-.58Zm-27.49-18,10.63-6.93,0.39-.26,13.28,7.74-13.46,7.28-10.84-7.83h0Zm29.26,0.65,13.4-7.51,11.53,8.08-11.31,7.15-0.4.25-13.23-8h0Zm-16.95-9.92,1.1-14,11.91,6.1-0.34.67,0.34-.67,0.41,0.21-0.14,15.47-13.28-7.75h0Zm15.78-7.34,12.71-6,0.63,13.84-12.36,6.91-1.13.63,0.15-15.37h0Z" transform="translate(-24.7 -19.15)"/></g></svg>