<svg xmlns="http://www.w3.org/2000/svg" id="solidBlueFlk" viewBox="0 0 574.01 482.31"><defs><style>.cls-1{fill:#fff}.cls-2{fill:none;stroke:#000;stroke-miterlimit:10}</style></defs><title>dcSolid</title><path d="M261.35,345A101.67,101.67,0,1,1,159.68,243.28,101.67,101.67,0,0,1,261.35,345ZM227.48,215a146,146,0,1,0,78.89,129.7l-1-336.31-76.63,53-0.22,154ZM105.94,352.18h0Zm0,0h0Z" class="cls-1" transform="translate(-14.37 -8.36)"/><path d="M112.11,285.52l-0.09.07,0.09-.07h0Z" class="cls-2" transform="translate(-14.37 -8.36)"/><path d="M157.92,239A106.06,106.06,0,1,0,264,345.09,106.06,106.06,0,0,0,157.92,239ZM153,306l-0.08-4.63-17.51-7.52L134,288.95l6.42-1.39,13,5.69-0.08-7.42-9-4.89-0.73-4.54,4.21-1.17,5.56,3.18-0.08-1.69v-5.24l4.86-5.26,4.54,5.4,0.2,7.09,5.21-3.57,4.13,1-1,4.13-8.26,5.62L163.5,293l12-6.85,4.82,0.89-0.45,5.49-16.41,9.66-0.26,9.24,18.19-7.09,2.66,18.75,8.16-4.65L192,299.36l4.08-3.31,3.73,3.67,0.5,13.85,6.33-3.36,0.46-10,3-3,3,3,0.27,5.49,5.46-2.88,7.08,1.18-1.15,6.89-5.8,3.16-1,.51,5.52,3.28,1.28,4.08-4.08,1.33-8.45-4.91-7.49,4,12.66,8.4,1.42,6.11-5.28.92-15.45-10.14-8.19,5.25,0.91,0.64,15.55,10.61-17.9,12.19,8.18,4.53L215,350.26l4.82,2.13L218.07,357,205,365.5l6.34,3.59,8.58-4.73,5.4,0.09-1,5-5.88,3.62,6.08,3.51,0.91,3,0.84,2.9-6,2.43-6.48-3.56v6.9L210,391.77l-2.91-4.55-0.47-9.78-6.38-3.51-0.34,15.6-3.07,3.91-4.35-3-0.58-21.13-8.19-4.52L181.51,385l-18.23-6.75L163.21,380,163,387.65l16.49,9.78,1.94,6-4.87.36-13.24-7.1,0.63,7.22,8.54,5.4,1.06,4.34-4.07,1-5.33-2.51,0.06,3,0,4.22L158.9,424l-4.31-5.55-0.37-6-5.27,2.59-4.13-1,1-4.13,8.26-5.62-0.45-7.15L141.54,404l-4.83-.92,0.43-5.55,16.36-9.77-0.32-9.38-17,7.49-3.89-19.15-7.73,5.07,0.38,19-4.17,3.24-3.4-3.62-0.29-14.4-6.66,3.9L110,390l-3,3-3-3-0.1-6.52-5.86,3.17-7.38-1.51L93.05,379,97,376.79l2.49-1.39-5.87-3-1.3-4,4-1.25,9.42,4,6.28-3.57-13.26-6.4-1.91-4.94,6-1,16.83,7.72,6.78-3.28,2.56-1.4-16.93-11.53,16.58-12.8-8.18-4.53-18.32,10.62-4.82-2.13L99,333.15l13.11-8.46-6.34-3.59-8.58,4.73-5.4-.09,1-5,5.79-3.47-6.43-3.63-0.84-2.47-1.74-3.8,7.28-2.15,6.46,3.57v-6.9l3.73-3.48L110,303l0.47,9.79,6.38,3.52,0.33-15.59,3.06-3.89,4.33,3L125.09,321l8.11,4.67,1.35-21.5,18.26,7.07Zm2,46.52,4.6-1.12,3.7,2.09,0.63-3.57,0.3-2.33,4.61-3.18-4.66-2.71-0.33-4.86-0.07-.47-5.24,2.18-4.62-2.47-0.09,5.64-1.95,1.8-2.41,1.92,4.09,2.34,0.92,4.91ZM180.93,337l-11.62,7.5,11.77,6.87,12-7.25Zm-17.81-14.89,0.68,13.81,11.83-6.76-0.27-14ZM141.34,329l12.11,6.67,0.26-14-12.28-6.77Zm34.33,45.41-0.12-14-12-6.42-0.29,13.83Zm-33.18-.5,12.08-7.12-0.45-13.62L142,359.8ZM125,346.31l12.2,6.91L149,345.66l-12-6.82Z" class="cls-1" transform="translate(-14.37 -8.36)"/><path d="M499.69,282.5a66.07,66.07,0,0,0-28.39-6.23c-37.46,0-68.29,30.83-68.29,68.29s30.83,68.29,68.29,68.29a68.33,68.33,0,0,0,54.58-27.25l1-1,61.54,47.18-0.44.57a145.59,145.59,0,0,1-116.65,58.25c-80.09,0-146-65.91-146-146s65.91-146,146-146A146,146,0,0,1,533,212.23l1.1,0.53L499.69,282.5" class="cls-1" transform="translate(-14.37 -8.36)"/></svg>