<svg id="dcWhiteFill" xmlns="http://www.w3.org/2000/svg" viewBox="0 0 499.82 383.95"><defs><style>.cls-1,.cls-2{fill:#fff;}.cls-1{stroke:#fff;stroke-miterlimit:10;stroke-width:11px;}</style></defs><title>SolidSlant</title><path class="cls-1" d="M438.29,311.91a52.71,52.71,0,0,0-22.65-5,54.48,54.48,0,1,0,43.54,87.22l0.77-.84L509.05,431l-0.35.46a116.15,116.15,0,0,1-93.06,46.48c-63.9,0-116.48-52.58-116.48-116.48s52.58-116.48,116.48-116.48a116.48,116.48,0,0,1,49.23,10.91l0.88,0.42Z" transform="translate(-16.96 -99.6)"/><path class="cls-1" d="M218.2,276c10.66-39.54,27.8-103.31,38.46-142.85l70.56-24.87L251.47,391.69a116.41,116.41,0,1,1-34-116.24ZM51.57,338.13a90.48,90.48,0,1,0,110.81-64A90.48,90.48,0,0,0,51.57,338.13Z" transform="translate(-16.96 -99.6)"/><path class="cls-2" d="M137.4,271.49a90.16,90.16,0,1,0,90.16,90.16A90.16,90.16,0,0,0,137.4,271.49Zm-4.17,56.93-0.07-3.93-14.89-6.39L117,313.92l5.45-1.18,11.08,4.84-0.07-6.31-7.62-4.16-0.62-3.86,3.58-1,4.73,2.7-0.07-1.44v-4.45l4.13-4.47,3.86,4.59,0.17,6,4.43-3,3.51,0.83-0.83,3.51-7,4.78,0.38,6.07,10.24-5.83,4.09,0.76L156.1,317l-13.95,8.21L141.93,333l15.47-6,2.26,15.94,6.93-4-0.22-16.2,3.47-2.81,3.17,3.12,0.42,11.77,5.38-2.86,0.39-8.48,2.56-2.54,2.55,2.56,0.23,4.67,4.64-2.45,6,1-1,5.86-4.93,2.68-0.83.43,4.7,2.79,1.09,3.47-3.47,1.13-7.19-4.18-6.37,3.39L188,349.47l1.21,5.19-4.49.78-13.14-8.62-7,4.47,0.77,0.55,13.22,9-15.22,10.36,7,3.86,15.57-9,4.1,1.81-1.46,4L177.4,379l5.39,3.05,7.29-4,4.59,0.08-0.86,4.25-5,3.07,5.17,3,0.77,2.59,0.72,2.47-5.1,2.07-5.51-3v5.87l-3.17,3-2.47-3.87-0.4-8.32-5.42-3-0.29,13.27-2.61,3.32-3.7-2.52-0.49-18-7-3.84-1.88,17.15L142,389.84l-0.07,1.46-0.14,6.54,14,8.31,1.65,5.12-4.14.3-11.25-6,0.54,6.14,7.26,4.59,0.9,3.69-3.46.87-4.53-2.13,0,2.53,0,3.59-4.58,3.91L134.57,424l-0.31-5.07-4.48,2.2-3.51-.83,0.83-3.51,7-4.78-0.39-6.08-10.25,5.81-4.1-.78,0.36-4.71,13.91-8.31-0.27-8L119,396.34l-3.31-16.28-6.57,4.31,0.32,16.18-3.55,2.76L103,400.24,102.72,388l-5.66,3.32-0.39,8.48-2.56,2.54-2.55-2.56-0.08-5.55-5,2.69-6.27-1.28,2-5.17,3.33-1.88,2.12-1.18-5-2.59-1.11-3.43L85,380.33l8,3.42,5.34-3-11.27-5.44-1.62-4.2,5.08-.89,14.31,6.56,5.76-2.78,2.18-1.19L98.42,363l14.09-10.88-7-3.86-15.57,9-4.1-1.81,1.46-4,11.14-7.19-5.39-3.05-7.29,4-4.59-.08,0.86-4.25L87,338l-5.46-3.08-0.71-2.1-1.48-3.23,6.19-1.83,5.49,3v-5.87l3.17-3,2.47,3.87,0.4,8.32,5.42,3,0.28-13.26,2.6-3.31,3.68,2.56,0.45,18,6.89,4,1.15-18.28,15.52,6ZM134.91,368l3.91-1L142,368.8l0.54-3,0.26-2,3.92-2.7-4-2.31-0.28-4.13-0.06-.4-4.45,1.86L134,354l-0.08,4.79-1.66,1.53-2,1.63,3.48,2,0.78,4.18ZM157,354.79l-9.88,6.38,10,5.84,10.2-6.16Zm-15.14-12.66,0.58,11.74,10.06-5.74-0.23-11.92Zm-18.52,5.82,10.29,5.67,0.22-11.88L123.39,336Zm29.18,38.6-0.1-11.92-10.22-5.46-0.25,11.76Zm-28.21-.42,10.27-6-0.38-11.58-10.31,5.66Zm-14.87-23.44,10.37,5.87,10-6.42-10.22-5.8Z" transform="translate(-16.96 -99.6)"/></svg>