<svg xmlns="http://www.w3.org/2000/svg" xmlns:xlink="http://www.w3.org/1999/xlink" id="Newdc" viewBox="0 0 573.12 482.31"><defs><style>.cls-1{fill:#fff}.cls-2{fill:url(#radial-gradient)}</style><radialGradient id="radial-gradient" cx="145.65" cy="335.31" r="132.59" gradientUnits="userSpaceOnUse"><stop offset=".51" stop-color="#fff" stop-opacity=".2"/><stop offset=".51" stop-color="#fff" stop-opacity=".21"/><stop offset=".56" stop-color="#fff" stop-opacity=".4"/><stop offset=".61" stop-color="#fff" stop-opacity=".56"/><stop offset=".66" stop-color="#fff" stop-opacity=".69"/><stop offset=".71" stop-color="#fff" stop-opacity=".81"/><stop offset=".77" stop-color="#fff" stop-opacity=".89"/><stop offset=".83" stop-color="#fff" stop-opacity=".95"/><stop offset=".9" stop-color="#fff" stop-opacity=".99"/><stop offset="1" stop-color="#fff"/></radialGradient></defs><title>dcSolidTint2</title><path d="M160.36,202.49A141.91,141.91,0,1,0,302.27,344.4,141.91,141.91,0,0,0,160.36,202.49Zm-6.05,93.65-0.1-5.71-21.62-9.28-1.79-6.07,7.92-1.72,16.08,7-0.1-9.17-11.06-6-0.9-5.61,5.2-1.44,6.86,3.93L154.7,260v-6.46l6-6.5,5.6,6.66,0.25,8.75L173,258l5.1,1.2-1.2,5.1-10.2,6.94,0.56,8.82,14.87-8.46,5.95,1.1-0.56,6.78-20.26,11.92-0.33,11.41,22.46-8.76,3.29,23.14,10.07-5.74-0.32-23.53,5-4.08,4.6,4.53,0.61,17.1,7.81-4.15L221.07,289l3.71-3.69,3.7,3.71,0.34,6.78,6.74-3.55,8.74,1.46-1.42,8.51-7.17,3.9-1.21.62,6.82,4,1.58,5-5,1.65-10.44-6.07-9.25,4.93,15.63,10.37,1.75,7.54L229,335.38,210,322.86l-10.11,6.49,1.12,0.79,19.2,13.1-22.1,15.05,10.1,5.6,22.62-13.12,5.95,2.63-2.11,5.75-16.18,10.45,7.82,4.43,10.59-5.84,6.67,0.11-1.25,6.17L235,378.93l7.5,4.33,1.12,3.76,1,3.58-7.41,3-8-4.39v8.52l-4.6,4.3-3.59-5.62-0.58-12.08L212.63,380l-0.42,19.26-3.79,4.83-5.37-3.67-0.72-26.09-10.12-5.57-2.73,24.91L167,385.33l-0.09,2.12-0.21,9.49L187,409l2.4,7.43-6,.44-16.34-8.77,0.78,8.91,10.54,6.67,1.31,5.35-5,1.27-6.58-3.1,0.07,3.68,0,5.22-6.66,5.68-5.32-6.85-0.45-7.36-6.51,3.2-5.1-1.2,1.2-5.1,10.2-6.94L155,408.7l-14.88,8.44-6-1.13,0.53-6.85,20.2-12.06-0.39-11.58-20.95,9.25-4.8-23.64-9.54,6.26,0.47,23.5-5.15,4-4.19-4.46L110,382.65l-8.22,4.82-0.56,12.32-3.71,3.69-3.7-3.71-0.12-8.05-7.24,3.91-9.11-1.86,2.94-7.51,4.83-2.74,3.08-1.71-7.24-3.76-1.61-5,5-1.55,11.63,5,7.75-4.4-16.37-7.91L85,358.07l7.38-1.29,20.78,9.53,8.37-4,3.16-1.73-20.9-14.23,20.46-15.8-10.1-5.6L91.49,338l-5.95-2.63,2.11-5.75,16.18-10.45L96,314.77l-10.59,5.84-6.67-.11L80,314.33,87.16,310l-7.94-4.48-1-3L76,297.83l9-2.65,8,4.41v-8.52l4.6-4.3,3.59,5.62,0.58,12.08,7.88,4.34,0.41-19.25,3.78-4.8,5.34,3.72,0.66,26.19,10,5.77,1.67-26.55,22.54,8.73Zm2.42,57.43,5.67-1.39,4.56,2.58,0.78-4.41,0.37-2.88,5.7-3.93-5.75-3.35-0.41-6-0.09-.58-6.47,2.7-5.71-3.06-0.11,7-2.41,2.22-3,2.37,5,2.89,1.14,6.07Zm32-19.15-14.35,9.26,14.53,8.48,14.82-8.95Zm-22-18.39,0.85,17.05,14.61-8.34-0.34-17.31Zm-26.89,8.46,15,8.23,0.32-17.26L140,307.1Zm42.38,56.06-0.15-17.31-14.84-7.93-0.36,17.07Zm-41-.62,14.92-8.78-0.56-16.82-15,8.22Zm-21.6-34,15.07,8.53,14.53-9.32-14.85-8.42Z" class="cls-1" transform="translate(-15.26 -8.33)"/><circle cx="145.65" cy="335.31" r="132.59" class="cls-2"/><path d="M262.25,344.92A101.67,101.67,0,1,1,160.57,243.25,101.67,101.67,0,0,1,262.25,344.92Zm-33.88-130a146,146,0,1,0,78.89,129.7l-1-336.31-76.63,53-0.22,154ZM106.83,352.15h0Zm0,0h0Z" class="cls-1" transform="translate(-15.26 -8.33)"/><path d="M499.69,282.5a66.07,66.07,0,0,0-28.39-6.23c-37.46,0-68.29,30.83-68.29,68.29s30.83,68.29,68.29,68.29a68.33,68.33,0,0,0,54.58-27.25l1-1,61.54,47.18-0.44.57a145.59,145.59,0,0,1-116.65,58.25c-80.09,0-146-65.91-146-146s65.91-146,146-146A146,146,0,0,1,533,212.23l1.1,0.53L499.69,282.5" class="cls-1" transform="translate(-15.26 -8.33)"/></svg>