<svg id="DC_angles" data-name="DC angles" xmlns="http://www.w3.org/2000/svg" viewBox="0 0 489.67 425.9"><defs><style>.cls-1{fill:#fff;}</style></defs><title>DCangles</title><path class="cls-1" d="M307,129.64l12.69,7.3a1.51,1.51,0,0,1,.75,1.31h0l0,15.46a1.51,1.51,0,0,1-2.34,1.25l-13.4-7.48a1.51,1.51,0,0,1-.77-1.31h0l-0.07-14.58-4.12-1.08-3.42,1.09,0.08,14.59a1.51,1.51,0,0,1-.83,1.35l-13.34,7.63a1.51,1.51,0,0,1-2.25-1.29h0l-0.19-15.42a1.51,1.51,0,0,1,.81-1.35L293,129.78l-0.86-3.5-3-3-12.49,7.32a1.51,1.51,0,0,1-1.59,0l-13.28-7.75a1.51,1.51,0,0,1,0-2.6h0l13.26-7.87a1.51,1.51,0,0,1,1.61,0l12.64,7.2,3.42-2.52,0.34-4-12.75-7.31a1.51,1.51,0,0,1-.75-1.31h0l0-15.46a1.51,1.51,0,0,1,2.35-1.25l13.39,7.53a1.51,1.51,0,0,1,.76,1.31h0l0.06,14.56,3.78,1.22,3.77-1.27-0.05-14.57a1.51,1.51,0,0,1,.78-1.33l13.36-7.66a1.51,1.51,0,0,1,2.26,1.35l0.23,15.36a1.51,1.51,0,0,1-.75,1.33h0L306.87,113l0.61,3.63,3.28,2.87,12.54-7.37a1.51,1.51,0,0,1,1.59,0l13.28,7.77a1.51,1.51,0,0,1,0,2.6h0l-13.26,7.88a1.51,1.51,0,0,1-1.62,0l-12.59-7.21-3.09,2.42L307,129.64h0Zm10.42,9.47L306.84,133l0.06,12.24,10.49,5.85,0-12h0Zm-24.06,6.22-0.07-12.2-10.5,6.17,0.15,12,10.42-6h0Zm-17.42-17.76,10.49-6.15-10.56-6-10.3,6.11,10.37,6h0Zm48.15-12.42-10.48,6.16,10.55,6,10.31-6.13-10.37-6.07h0Zm-41.49-11.53,10.55,6,0-12.17L282.6,91.6l0,12h0Zm22,14L304,114.19l-3.51,1.18a1.5,1.5,0,0,1-1,0L296,114.29,295.68,118a1.5,1.5,0,0,1-.61,1.15l-3.34,2.46,2.87,2.86h0a1.5,1.5,0,0,1,.4.7l0.85,3.44,3.28-1.05a1.5,1.5,0,0,1,.92,0l4.05,1.07,0.65-4h0a1.5,1.5,0,0,1,.55-0.94l2.92-2.29-3.13-2.73h0a1.5,1.5,0,0,1-.5-0.89h0Zm12.66-14.22-0.18-12-10.41,6,0,12.16,10.55-6.14h0Z" transform="translate(-55.16 -35.1)"/><path class="cls-1" d="M368.25,152.47l4.43,2.54a1.5,1.5,0,0,1,.73,1l1.64,7a1.5,1.5,0,0,1-1,1.78h0L367.15,167a1.5,1.5,0,0,1-1.2-.13h0l-4.43-2.56,0,3.83a1.5,1.5,0,0,1-.48,1.09l-3.53,3.28a1.51,1.51,0,0,1-2.05,0h0l-3.55-3.31a1.5,1.5,0,0,1-.48-1.16l0-9.47L347,156l0,13.76a1.5,1.5,0,0,1-.48,1.09l-4.31,4a1.51,1.51,0,0,1-2.07,0h0l-4.22-4a1.5,1.5,0,0,1-.47-1.09h0l0.07-20.3-6.54-3.74L326.26,164a1.51,1.51,0,0,1-2,1.18h0L307,158.51V166l17.75,9.91a1.5,1.5,0,0,1,.73,1h0l1.39,5.71a1.51,1.51,0,0,1-1,1.79h0l-5.59,1.76A1.51,1.51,0,0,1,319,186l-11.92-6.7,0,5.13,8.29,4.64a1.5,1.5,0,0,1,.72.94h0l1.2,4.74a1.51,1.51,0,0,1-1,1.81h0L311.65,198a1.51,1.51,0,0,1-1.28-.18L307.16,196l0,5.12a1.5,1.5,0,0,1-.5,1.13l-5,4.7a1.53,1.53,0,0,1-2.29.24h0l-5.32-5a1.5,1.5,0,0,1-.48-1.17l0-5L290.3,198a1.5,1.5,0,0,1-1.27.11l-4.58-1.35a1.51,1.51,0,0,1-1-1.8h0l1.13-4.74a1.5,1.5,0,0,1,.71-1h0l8.26-4.75,0-5.12-11.95,6.83a1.51,1.51,0,0,1-1.28.11l-5.48-1.67a1.51,1.51,0,0,1-1-1.79h0l1.33-5.68a1.51,1.51,0,0,1,.77-1l17.57-10.11,0-7.48-17.19,6.85a1.51,1.51,0,0,1-2.05-1.23L271.37,146l-6.52,3.8,0.27,20.35a1.51,1.51,0,0,1-.53,1.17l-4.14,4a1.51,1.51,0,0,1-2.05,0h0l-4.32-3.91a1.51,1.51,0,0,1-.5-1.2l-0.21-13.68L249,159l0.12,9.54a1.51,1.51,0,0,1-.53,1.16L245.15,173a1.51,1.51,0,0,1-2.05,0h0l-3.61-3.28a1.51,1.51,0,0,1-.5-1.19l-0.06-3.68-4.37,2.56a1.5,1.5,0,0,1-1.2.15h0l-7-2.07a1.51,1.51,0,0,1-1-1.88,1.53,1.53,0,0,1,.07-0.18l1.56-6.8a1.5,1.5,0,0,1,.71-1h0l4.39-2.56-3.3-1.91a1.5,1.5,0,0,1-.71-1h0l-1.09-4.7a1.51,1.51,0,0,1,1-1.78l4.64-1.43a1.51,1.51,0,0,1,1.28.18l8.17,4.75,4.43-2.59-11.89-6.89a1.5,1.5,0,0,1-.72-1h0l-1.3-5.75a1.51,1.51,0,0,1,1.09-1.79l5.56-1.65a1.5,1.5,0,0,1,1.25.18L258,138.07l6.49-3.82-14.55-11.46a1.51,1.51,0,0,1,.05-2.42l14.38-11.55-6.51-3.75-17.5,10.42a1.51,1.51,0,0,1-1.31.11L233.57,114a1.51,1.51,0,0,1-1-1.77l1.24-5.69a1.5,1.5,0,0,1,.7-1h0l11.83-7L241.85,96l-8.19,4.89a1.51,1.51,0,0,1-1.31.12l-4.55-1.34a1.51,1.51,0,0,1-1-1.76h0l1-4.78a1.5,1.5,0,0,1,.78-1l3.22-1.91-4.43-2.52a1.5,1.5,0,0,1-.72-1h0L225,79.88a1.51,1.51,0,0,1,1.3-2l6.58-2.09a1.5,1.5,0,0,1,1.21.13h0l4.43,2.56,0-3.83a1.5,1.5,0,0,1,.48-1.09l3.52-3.28a1.51,1.51,0,0,1,2.06,0h0l3.52,3.3a1.51,1.51,0,0,1,.47,1.22v9.42L253,86.74l0-13.75a1.51,1.51,0,0,1,.5-1.12l4.25-4a1.51,1.51,0,0,1,2.07,0h0l4.29,4a1.51,1.51,0,0,1,.48,1.19l-0.09,20.27,6.51,3.73,2.68-18.36a1.51,1.51,0,0,1,2.08-1.17L293,84.22l0-7.52-17.74-9.94a1.5,1.5,0,0,1-.72-0.95h0l-1.4-5.66a1.51,1.51,0,0,1,1-1.8h0l5.61-1.8a1.51,1.51,0,0,1,1.29.17l11.89,6.71,0-5.13-8.32-4.67a1.5,1.5,0,0,1-.74-1L282.73,48a1.5,1.5,0,0,1,1-1.78h0l4.62-1.47a1.5,1.5,0,0,1,1.19.12h0l3.31,1.85,0-5.12a1.5,1.5,0,0,1,.47-1.1h0l5.26-5a1.51,1.51,0,0,1,2.12,0l5.24,4.84a1.5,1.5,0,0,1,.49,1.11h0v5.12l3.31-1.9a1.5,1.5,0,0,1,1.25-.12L315.57,46a1.51,1.51,0,0,1,1,1.79h0l-1.11,4.73a1.51,1.51,0,0,1-.77,1l-8.21,4.72,0,5.12,11.95-6.89a1.5,1.5,0,0,1,1.21-.13h0l5.58,1.76a1.51,1.51,0,0,1,1,1.87l-1.34,5.63a1.5,1.5,0,0,1-.78,1l-17.55,10,0,7.52,17.22-6.85a1.51,1.51,0,0,1,2.05,1.23l2.8,18.21L335.16,93l-0.24-20.33a1.51,1.51,0,0,1,.55-1.18l4.15-4a1.5,1.5,0,0,1,2.07,0h0l4.3,4a1.5,1.5,0,0,1,.49,1.09h0l0.17,13.76,4.42-2.54L351,74.14a1.5,1.5,0,0,1,.47-1.1h0l3.47-3.32a1.51,1.51,0,0,1,2,0h0l3.59,3.24a1.51,1.51,0,0,1,.5,1.18l0.06,3.73,4.39-2.57a1.51,1.51,0,0,1,1.19-.14h0l6.92,2.05a1.51,1.51,0,0,1,1,1.85l-1.57,7a1.5,1.5,0,0,1-.71,1h0L368,89.55l3.29,1.9a1.5,1.5,0,0,1,.72,1h0l1.07,4.74A1.51,1.51,0,0,1,372,99l-4.62,1.39a1.5,1.5,0,0,1-1.27-.19l-8.15-4.78L353.48,98l11.9,6.89a1.5,1.5,0,0,1,.72,1h0l1.3,5.75a1.51,1.51,0,0,1-1.09,1.79L360.78,115a1.5,1.5,0,0,1-1.25-.18L342,104.68l-6.46,3.79,14.35,10.89a1.51,1.51,0,0,1,.06,2.35h0l-14.37,12.14,6.58,3.76,17.46-10.37a1.51,1.51,0,0,1,1.19-.16l5.61,1.59a1.51,1.51,0,0,1,1.06,1.78h0l-1.26,5.73a1.51,1.51,0,0,1-.75,1l-11.77,7,4.44,2.53,8.2-4.88a1.51,1.51,0,0,1,1.31-.12l4.55,1.34a1.51,1.51,0,0,1,1,1.77h0l-1,4.7a1.51,1.51,0,0,1-.77,1l-3.19,1.91h0Zm2.37,4.83-6-3.47a1.51,1.51,0,0,1-.08-2.63l4.91-2.94,0.6-2.7-2.67-.78-8.39,5h0a1.51,1.51,0,0,1-1.52,0l-7.36-4.2a1.51,1.51,0,0,1-.12-2.66l13.48-8,0.81-3.71-3.61-1L343,140.65h0a1.51,1.51,0,0,1-1.52,0l-9.15-5.22a1.51,1.51,0,0,1-.29-2.5l14.58-12.32L332,109.55a1.51,1.51,0,0,1,.09-2.54l9.16-5.38h0a1.51,1.51,0,0,1,1.52,0L360.54,112l3.61-1.07-0.85-3.73L349.8,99.34a1.51,1.51,0,0,1-.07-2.64l7.44-4.37h0a1.51,1.51,0,0,1,1.53,0l8.41,4.93,2.69-.81-0.62-2.73-4.87-2.81a1.51,1.51,0,0,1-.11-2.67l6.05-3.53,1.13-5-4.94-1.47-6.06,3.54h0a1.51,1.51,0,0,1-2.27-1.28L358,74.73,356,72.86l-2,1.9,0.09,9.73a1.51,1.51,0,0,1-.75,1.4L346,90.12a1.51,1.51,0,0,1-2.31-1.26l-0.19-15.68-2.78-2.57-2.74,2.65,0.25,20.56h0a1.5,1.5,0,0,1-.75,1.32l-9.15,5.31h0A1.5,1.5,0,0,1,326,99.37l-2.86-18.58-17.43,6.94a1.51,1.51,0,0,1-2.16-1.36l0-10.61h0a1.51,1.51,0,0,1,.76-1.31l17.81-10.18,0.88-3.7-3.61-1.14-13.54,7.81A1.51,1.51,0,0,1,303.52,66l-0.05-8.59h0a1.51,1.51,0,0,1,.75-1.32l8.46-4.87,0.64-2.73-2.66-.82-5,2.87a1.51,1.51,0,0,1-2.28-1.29l0-7.06-3.79-3.5-3.76,3.54,0,7h0a1.51,1.51,0,0,1-2.24,1.32l-5-2.79-2.67.85,0.65,2.7,8.47,4.75a1.51,1.51,0,0,1,.8,1.32L296,66a1.51,1.51,0,0,1-2.25,1.33l-13.67-7.71-3.64,1.17,0.9,3.66,17.85,10A1.51,1.51,0,0,1,296,75.8l0.06,10.52A1.51,1.51,0,0,1,294,87.83L276.48,81l-2.73,18.67h0a1.51,1.51,0,0,1-2.24,1.09l-9.13-5.23a1.51,1.51,0,0,1-.82-1.35l0.09-20.57L258.86,71l-2.78,2.63,0,15.7h0a1.51,1.51,0,0,1-2.26,1.3l-7.46-4.28h0a1.5,1.5,0,0,1-.75-1.31V75.31l-2-1.89-2,1.87,0,5.77h0a1.51,1.51,0,0,1-2.26,1.3l-6.1-3.53-4.93,1.56,1.2,5,6.12,3.47h0a1.5,1.5,0,0,1,0,2.6l-5,2.94L230,97.17,232.67,98l8.38-5h0a1.51,1.51,0,0,1,1.52,0l7.37,4.19a1.51,1.51,0,0,1,.12,2.66l-13.5,8-0.8,3.68,3.62,1.07L257.07,102h0a1.51,1.51,0,0,1,1.52,0l9.13,5.26a1.51,1.51,0,0,1,.25,2.51l-14.69,11.8,14.8,11.66h0a1.51,1.51,0,0,1-.16,2.49l-9.16,5.38h0a1.51,1.51,0,0,1-1.52,0l-17.75-10.37-3.63,1.08,0.85,3.73,13.5,7.82a1.51,1.51,0,0,1,.07,2.64l-7.42,4.34h0a1.51,1.51,0,0,1-1.52,0l-8.44-4.91-2.67.82,0.63,2.7,4.87,2.83a1.51,1.51,0,0,1,.11,2.66L229.78,158l-1.16,5.05,5,1.48,6-3.53h0a1.51,1.51,0,0,1,2.27,1.27L242,168l2.09,1.9,2-1.91-0.13-9.7a1.51,1.51,0,0,1,.75-1.39l7.39-4.3h0a1.51,1.51,0,0,1,2.27,1.28l0.24,15.7,2.8,2.53,2.71-2.6-0.27-20.57h0a1.5,1.5,0,0,1,.75-1.32l9.2-5.35h0a1.5,1.5,0,0,1,2.24,1.07l2.86,18.62,17.4-6.94a1.51,1.51,0,0,1,2.16,1.36l0,10.55a1.51,1.51,0,0,1-.75,1.34L277.89,178.5,277,182.17l3.58,1.1,13.63-7.8h0a1.51,1.51,0,0,1,2.26,1.3l0,8.56a1.51,1.51,0,0,1-.75,1.34l-8.46,4.86-0.65,2.72,2.68,0.79,5-2.88h0a1.51,1.51,0,0,1,2.26,1.31l0,7,3.8,3.54,3.77-3.53-0.06-7.07a1.51,1.51,0,0,1,2.25-1.32l5,2.84,2.69-.85-0.69-2.74L305,186.68a1.51,1.51,0,0,1-.89-1.37l-0.05-8.6h0a1.51,1.51,0,0,1,2.25-1.32L320,183.08l3.63-1.14-0.9-3.7-17.94-10h0a1.5,1.5,0,0,1-.77-1.31V156.44A1.51,1.51,0,0,1,306,154.9l17.51,6.81,2.71-18.61a1.51,1.51,0,0,1,2.25-1.13l9.12,5.21a1.51,1.51,0,0,1,.87,1.37l-0.07,20.53,2.72,2.61,2.79-2.6,0.05-15.7h0a1.51,1.51,0,0,1,2.26-1.3l7.38,4.24a1.51,1.51,0,0,1,.82,1.35l0,9.73,2,1.91,2-1.88,0-5.77h0a1.51,1.51,0,0,1,2.26-1.3l6.1,3.52,4.92-1.53-1.18-5.05h0Zm-5.13-20.1a1.5,1.5,0,0,1-1,.15l1-.15h0Z" transform="translate(-55.16 -35.1)"/><path class="cls-1" d="M166.32,175c23.83,0,42,1.36,54.49,5A95.36,95.36,0,0,1,264,206.14c12,12.63,21.09,28,27.34,46.27s9.38,40.8,9.38,67.62q0,35.35-8.79,60.91-10.74,31.25-30.66,50.57c-10,9.77-23.57,17.68-40.62,23.15-12.76,4-29.82,6.35-51.17,6.35H55.16l48.17-48h58.3c16.14,0,27.8-1.33,35-3.16a53.64,53.64,0,0,0,23.34-12.13c6.18-5.6,11.23-14.92,15.14-27.74s5.86-30.36,5.86-52.49-2-39.15-5.86-51-9.37-21.11-16.41-27.75-16-11.19-26.76-13.54c-8.08-1.82-23.49-2.16-47.46-2.16l-41.28,0L55.41,175H166.32Z" transform="translate(-55.16 -35.1)"/><path class="cls-1" d="M433.67,175c-23.83,0-42,1.36-54.49,5A95.36,95.36,0,0,0,336,206.14c-12,12.63-21.09,28-27.34,46.27S299.3,293.2,299.3,320q0,35.35,8.79,60.91,10.74,31.25,30.66,50.57c10,9.77,23.57,17.68,40.62,23.15,12.76,4,29.82,6.35,51.17,6.35H544.83l-48.17-48h-58.3c-16.14,0-27.8-1.33-35-3.16a53.64,53.64,0,0,1-23.34-12.13c-6.18-5.6-11.23-14.92-15.14-27.74s-5.86-30.36-5.86-52.49,2-39.15,5.86-51,9.38-21.11,16.41-27.75,16-11.19,26.76-13.54c8.08-1.82,23.49-2.16,47.46-2.16l41.28,0,47.75-48H433.67Z" transform="translate(-55.16 -35.1)"/></svg>